<mxfile host="app.diagrams.net" modified="2023-07-24T06:24:14.044Z" agent="Mozilla/5.0 (Windows NT 10.0; Win64; x64) AppleWebKit/537.36 (KHTML, like Gecko) Chrome/114.0.0.0 Safari/537.36" etag="A0_PGeVxoiRiADW7Ixtx" version="21.6.2" type="github">
  <diagram name="第 1 页" id="p2k5X2d5aFqdaaYhPEqi">
    <mxGraphModel dx="1134" dy="566" grid="1" gridSize="10" guides="1" tooltips="1" connect="1" arrows="1" fold="1" page="1" pageScale="1" pageWidth="827" pageHeight="1169" math="0" shadow="0">
      <root>
        <mxCell id="0" />
        <mxCell id="1" parent="0" />
        <mxCell id="SWsXJmOZ7wIr2kyGPUlN-67" value="" style="rounded=0;whiteSpace=wrap;html=1;strokeColor=none;fillColor=#EDEDED;" vertex="1" parent="1">
          <mxGeometry x="50" y="60" width="1480" height="520" as="geometry" />
        </mxCell>
        <mxCell id="SWsXJmOZ7wIr2kyGPUlN-3" value="hh_bi_ods" style="swimlane;horizontal=0;whiteSpace=wrap;html=1;fillColor=#ffe6cc;strokeColor=#000000;swimlaneLine=1;swimlaneHead=1;expand=1;collapsible=0;" vertex="1" parent="1">
          <mxGeometry x="90" y="80" width="1410" height="160" as="geometry" />
        </mxCell>
        <mxCell id="SWsXJmOZ7wIr2kyGPUlN-37" style="edgeStyle=orthogonalEdgeStyle;rounded=0;orthogonalLoop=1;jettySize=auto;html=1;exitX=0.5;exitY=1;exitDx=0;exitDy=0;" edge="1" parent="SWsXJmOZ7wIr2kyGPUlN-3" source="SWsXJmOZ7wIr2kyGPUlN-4">
          <mxGeometry relative="1" as="geometry">
            <mxPoint x="125" y="200" as="targetPoint" />
          </mxGeometry>
        </mxCell>
        <mxCell id="SWsXJmOZ7wIr2kyGPUlN-4" value="ods_bi_thcm_staff_i_df" style="rounded=0;whiteSpace=wrap;html=1;align=center;" vertex="1" parent="SWsXJmOZ7wIr2kyGPUlN-3">
          <mxGeometry x="50" y="91.25" width="150" height="27.5" as="geometry" />
        </mxCell>
        <mxCell id="SWsXJmOZ7wIr2kyGPUlN-5" value="ods_bi_tmdm_post_df" style="rounded=0;whiteSpace=wrap;html=1;align=center;" vertex="1" parent="SWsXJmOZ7wIr2kyGPUlN-3">
          <mxGeometry x="210" y="91.25" width="150" height="27.5" as="geometry" />
        </mxCell>
        <mxCell id="SWsXJmOZ7wIr2kyGPUlN-7" value="ods_bi_tmdm_dept_mapping_df" style="rounded=0;whiteSpace=wrap;html=1;align=center;" vertex="1" parent="SWsXJmOZ7wIr2kyGPUlN-3">
          <mxGeometry x="370" y="91.25" width="200" height="27.5" as="geometry" />
        </mxCell>
        <mxCell id="SWsXJmOZ7wIr2kyGPUlN-9" value="ods_bi_dim_mgmt_region_m_df" style="rounded=0;whiteSpace=wrap;html=1;align=center;" vertex="1" parent="SWsXJmOZ7wIr2kyGPUlN-3">
          <mxGeometry x="740" y="90" width="240" height="27.5" as="geometry" />
        </mxCell>
        <mxCell id="SWsXJmOZ7wIr2kyGPUlN-6" value="ods_bi_tmdm_psn_df" style="rounded=0;whiteSpace=wrap;html=1;align=center;" vertex="1" parent="SWsXJmOZ7wIr2kyGPUlN-3">
          <mxGeometry x="580" y="90" width="150" height="28.75" as="geometry" />
        </mxCell>
        <mxCell id="SWsXJmOZ7wIr2kyGPUlN-15" style="edgeStyle=orthogonalEdgeStyle;rounded=0;orthogonalLoop=1;jettySize=auto;html=1;exitX=0.5;exitY=1;exitDx=0;exitDy=0;entryX=0.5;entryY=0;entryDx=0;entryDy=0;" edge="1" parent="SWsXJmOZ7wIr2kyGPUlN-3" source="SWsXJmOZ7wIr2kyGPUlN-10" target="SWsXJmOZ7wIr2kyGPUlN-4">
          <mxGeometry relative="1" as="geometry" />
        </mxCell>
        <mxCell id="SWsXJmOZ7wIr2kyGPUlN-10" value="s_bi_thcm_staff_i_df" style="rounded=0;whiteSpace=wrap;html=1;align=center;" vertex="1" parent="SWsXJmOZ7wIr2kyGPUlN-3">
          <mxGeometry x="50" y="41.25" width="150" height="27.5" as="geometry" />
        </mxCell>
        <mxCell id="SWsXJmOZ7wIr2kyGPUlN-16" style="edgeStyle=orthogonalEdgeStyle;rounded=0;orthogonalLoop=1;jettySize=auto;html=1;exitX=0.5;exitY=1;exitDx=0;exitDy=0;entryX=0.5;entryY=0;entryDx=0;entryDy=0;" edge="1" parent="SWsXJmOZ7wIr2kyGPUlN-3" source="SWsXJmOZ7wIr2kyGPUlN-11" target="SWsXJmOZ7wIr2kyGPUlN-5">
          <mxGeometry relative="1" as="geometry" />
        </mxCell>
        <mxCell id="SWsXJmOZ7wIr2kyGPUlN-11" value="s_bi_tmdm_post_df" style="rounded=0;whiteSpace=wrap;html=1;align=center;" vertex="1" parent="SWsXJmOZ7wIr2kyGPUlN-3">
          <mxGeometry x="210" y="41.25" width="150" height="27.5" as="geometry" />
        </mxCell>
        <mxCell id="SWsXJmOZ7wIr2kyGPUlN-17" style="edgeStyle=orthogonalEdgeStyle;rounded=0;orthogonalLoop=1;jettySize=auto;html=1;exitX=0.5;exitY=1;exitDx=0;exitDy=0;entryX=0.5;entryY=0;entryDx=0;entryDy=0;" edge="1" parent="SWsXJmOZ7wIr2kyGPUlN-3" source="SWsXJmOZ7wIr2kyGPUlN-12" target="SWsXJmOZ7wIr2kyGPUlN-7">
          <mxGeometry relative="1" as="geometry" />
        </mxCell>
        <mxCell id="SWsXJmOZ7wIr2kyGPUlN-12" value="s_bi_tmdm_dept_mapping_df" style="rounded=0;whiteSpace=wrap;html=1;align=center;" vertex="1" parent="SWsXJmOZ7wIr2kyGPUlN-3">
          <mxGeometry x="370" y="41.25" width="200" height="27.5" as="geometry" />
        </mxCell>
        <mxCell id="SWsXJmOZ7wIr2kyGPUlN-20" style="edgeStyle=orthogonalEdgeStyle;rounded=0;orthogonalLoop=1;jettySize=auto;html=1;exitX=0.5;exitY=1;exitDx=0;exitDy=0;entryX=0.5;entryY=0;entryDx=0;entryDy=0;" edge="1" parent="SWsXJmOZ7wIr2kyGPUlN-3" source="SWsXJmOZ7wIr2kyGPUlN-13" target="SWsXJmOZ7wIr2kyGPUlN-9">
          <mxGeometry relative="1" as="geometry" />
        </mxCell>
        <mxCell id="SWsXJmOZ7wIr2kyGPUlN-13" value="s_bi_dim_mgmt_region_m_df" style="rounded=0;whiteSpace=wrap;html=1;align=center;" vertex="1" parent="SWsXJmOZ7wIr2kyGPUlN-3">
          <mxGeometry x="740" y="40" width="240" height="27.5" as="geometry" />
        </mxCell>
        <mxCell id="SWsXJmOZ7wIr2kyGPUlN-18" style="edgeStyle=orthogonalEdgeStyle;rounded=0;orthogonalLoop=1;jettySize=auto;html=1;exitX=0.5;exitY=1;exitDx=0;exitDy=0;entryX=0.5;entryY=0;entryDx=0;entryDy=0;" edge="1" parent="SWsXJmOZ7wIr2kyGPUlN-3" source="SWsXJmOZ7wIr2kyGPUlN-14" target="SWsXJmOZ7wIr2kyGPUlN-6">
          <mxGeometry relative="1" as="geometry" />
        </mxCell>
        <mxCell id="SWsXJmOZ7wIr2kyGPUlN-14" value="s_bi_tmdm_psn_df" style="rounded=0;whiteSpace=wrap;html=1;align=center;" vertex="1" parent="SWsXJmOZ7wIr2kyGPUlN-3">
          <mxGeometry x="580" y="40" width="150" height="28.75" as="geometry" />
        </mxCell>
        <mxCell id="SWsXJmOZ7wIr2kyGPUlN-38" style="edgeStyle=orthogonalEdgeStyle;rounded=0;orthogonalLoop=1;jettySize=auto;html=1;exitX=0.5;exitY=1;exitDx=0;exitDy=0;entryX=0.5;entryY=0;entryDx=0;entryDy=0;" edge="1" parent="1" source="SWsXJmOZ7wIr2kyGPUlN-5" target="SWsXJmOZ7wIr2kyGPUlN-30">
          <mxGeometry relative="1" as="geometry" />
        </mxCell>
        <mxCell id="SWsXJmOZ7wIr2kyGPUlN-39" style="edgeStyle=orthogonalEdgeStyle;rounded=0;orthogonalLoop=1;jettySize=auto;html=1;exitX=0.5;exitY=1;exitDx=0;exitDy=0;entryX=0.5;entryY=0;entryDx=0;entryDy=0;" edge="1" parent="1" source="SWsXJmOZ7wIr2kyGPUlN-7" target="SWsXJmOZ7wIr2kyGPUlN-32">
          <mxGeometry relative="1" as="geometry" />
        </mxCell>
        <mxCell id="SWsXJmOZ7wIr2kyGPUlN-40" style="edgeStyle=orthogonalEdgeStyle;rounded=0;orthogonalLoop=1;jettySize=auto;html=1;exitX=0.5;exitY=1;exitDx=0;exitDy=0;entryX=0.5;entryY=0;entryDx=0;entryDy=0;" edge="1" parent="1" source="SWsXJmOZ7wIr2kyGPUlN-6" target="SWsXJmOZ7wIr2kyGPUlN-36">
          <mxGeometry relative="1" as="geometry" />
        </mxCell>
        <mxCell id="SWsXJmOZ7wIr2kyGPUlN-41" style="edgeStyle=orthogonalEdgeStyle;rounded=0;orthogonalLoop=1;jettySize=auto;html=1;exitX=0.5;exitY=1;exitDx=0;exitDy=0;entryX=0.5;entryY=0;entryDx=0;entryDy=0;" edge="1" parent="1" source="SWsXJmOZ7wIr2kyGPUlN-9" target="SWsXJmOZ7wIr2kyGPUlN-34">
          <mxGeometry relative="1" as="geometry" />
        </mxCell>
        <mxCell id="SWsXJmOZ7wIr2kyGPUlN-44" value="hh_bi_ads" style="swimlane;horizontal=0;whiteSpace=wrap;html=1;fillColor=#f8cecc;strokeColor=#000000;collapsible=0;" vertex="1" parent="1">
          <mxGeometry x="90" y="400" width="1410" height="160" as="geometry" />
        </mxCell>
        <mxCell id="SWsXJmOZ7wIr2kyGPUlN-45" value="ads_mkt_sfa_manager_achievement_f" style="rounded=0;whiteSpace=wrap;html=1;align=center;" vertex="1" parent="SWsXJmOZ7wIr2kyGPUlN-44">
          <mxGeometry x="50" y="110" width="240" height="27.5" as="geometry" />
        </mxCell>
        <mxCell id="SWsXJmOZ7wIr2kyGPUlN-60" style="edgeStyle=orthogonalEdgeStyle;rounded=0;orthogonalLoop=1;jettySize=auto;html=1;exitX=0.5;exitY=1;exitDx=0;exitDy=0;entryX=0.75;entryY=0;entryDx=0;entryDy=0;" edge="1" parent="SWsXJmOZ7wIr2kyGPUlN-44" source="SWsXJmOZ7wIr2kyGPUlN-46" target="SWsXJmOZ7wIr2kyGPUlN-45">
          <mxGeometry relative="1" as="geometry">
            <Array as="points">
              <mxPoint x="230" y="68" />
            </Array>
          </mxGeometry>
        </mxCell>
        <mxCell id="SWsXJmOZ7wIr2kyGPUlN-46" value="ads_mkt_sfa_personal_achievement_f" style="rounded=0;whiteSpace=wrap;html=1;align=center;" vertex="1" parent="SWsXJmOZ7wIr2kyGPUlN-44">
          <mxGeometry x="50" y="40" width="280" height="27.5" as="geometry" />
        </mxCell>
        <mxCell id="SWsXJmOZ7wIr2kyGPUlN-58" style="edgeStyle=orthogonalEdgeStyle;rounded=0;orthogonalLoop=1;jettySize=auto;html=1;exitX=0.5;exitY=1;exitDx=0;exitDy=0;" edge="1" parent="1" source="SWsXJmOZ7wIr2kyGPUlN-43" target="SWsXJmOZ7wIr2kyGPUlN-46">
          <mxGeometry relative="1" as="geometry">
            <Array as="points">
              <mxPoint x="1180" y="454" />
            </Array>
          </mxGeometry>
        </mxCell>
        <mxCell id="SWsXJmOZ7wIr2kyGPUlN-43" value="dwd_mkt_sfa_stan_staff_df" style="rounded=0;whiteSpace=wrap;html=1;align=center;" vertex="1" parent="1">
          <mxGeometry x="1090" y="280" width="180" height="27.5" as="geometry" />
        </mxCell>
        <mxCell id="SWsXJmOZ7wIr2kyGPUlN-61" style="edgeStyle=orthogonalEdgeStyle;rounded=0;orthogonalLoop=1;jettySize=auto;html=1;exitX=0.5;exitY=1;exitDx=0;exitDy=0;entryX=1;entryY=0.5;entryDx=0;entryDy=0;" edge="1" parent="1" source="SWsXJmOZ7wIr2kyGPUlN-42" target="SWsXJmOZ7wIr2kyGPUlN-46">
          <mxGeometry relative="1" as="geometry" />
        </mxCell>
        <mxCell id="SWsXJmOZ7wIr2kyGPUlN-42" value="dwd_mkt_sfa_stan_staff_assist_df" style="rounded=0;whiteSpace=wrap;html=1;align=center;" vertex="1" parent="1">
          <mxGeometry x="1280" y="280" width="200" height="27.5" as="geometry" />
        </mxCell>
        <mxCell id="SWsXJmOZ7wIr2kyGPUlN-52" style="edgeStyle=orthogonalEdgeStyle;rounded=0;orthogonalLoop=1;jettySize=auto;html=1;exitX=0.5;exitY=1;exitDx=0;exitDy=0;entryX=0.25;entryY=0;entryDx=0;entryDy=0;" edge="1" parent="1" source="SWsXJmOZ7wIr2kyGPUlN-28" target="SWsXJmOZ7wIr2kyGPUlN-45">
          <mxGeometry relative="1" as="geometry">
            <Array as="points">
              <mxPoint x="200" y="309" />
            </Array>
          </mxGeometry>
        </mxCell>
        <mxCell id="SWsXJmOZ7wIr2kyGPUlN-53" style="edgeStyle=orthogonalEdgeStyle;rounded=0;orthogonalLoop=1;jettySize=auto;html=1;exitX=0.5;exitY=1;exitDx=0;exitDy=0;entryX=0.5;entryY=0;entryDx=0;entryDy=0;" edge="1" parent="1" source="SWsXJmOZ7wIr2kyGPUlN-30" target="SWsXJmOZ7wIr2kyGPUlN-45">
          <mxGeometry relative="1" as="geometry" />
        </mxCell>
        <mxCell id="SWsXJmOZ7wIr2kyGPUlN-54" style="edgeStyle=orthogonalEdgeStyle;rounded=0;orthogonalLoop=1;jettySize=auto;html=1;exitX=0.5;exitY=1;exitDx=0;exitDy=0;entryX=0.5;entryY=0;entryDx=0;entryDy=0;" edge="1" parent="1" source="SWsXJmOZ7wIr2kyGPUlN-32" target="SWsXJmOZ7wIr2kyGPUlN-45">
          <mxGeometry relative="1" as="geometry" />
        </mxCell>
        <mxCell id="SWsXJmOZ7wIr2kyGPUlN-56" style="edgeStyle=orthogonalEdgeStyle;rounded=0;orthogonalLoop=1;jettySize=auto;html=1;exitX=0.5;exitY=1;exitDx=0;exitDy=0;entryX=0.5;entryY=0;entryDx=0;entryDy=0;" edge="1" parent="1" source="SWsXJmOZ7wIr2kyGPUlN-36" target="SWsXJmOZ7wIr2kyGPUlN-45">
          <mxGeometry relative="1" as="geometry" />
        </mxCell>
        <mxCell id="SWsXJmOZ7wIr2kyGPUlN-57" style="edgeStyle=orthogonalEdgeStyle;rounded=0;orthogonalLoop=1;jettySize=auto;html=1;exitX=0.5;exitY=1;exitDx=0;exitDy=0;entryX=0.5;entryY=0;entryDx=0;entryDy=0;horizontal=1;verticalAlign=middle;fontStyle=0" edge="1" parent="1" source="SWsXJmOZ7wIr2kyGPUlN-34" target="SWsXJmOZ7wIr2kyGPUlN-45">
          <mxGeometry relative="1" as="geometry" />
        </mxCell>
        <mxCell id="SWsXJmOZ7wIr2kyGPUlN-21" value="hh_bi_cdm" style="swimlane;horizontal=0;whiteSpace=wrap;html=1;fillColor=#dae8fc;strokeColor=#000000;collapsible=0;" vertex="1" parent="1">
          <mxGeometry x="90" y="240" width="1410" height="160" as="geometry" />
        </mxCell>
        <mxCell id="SWsXJmOZ7wIr2kyGPUlN-28" value="dim_mkt_thcm_staff_i_f" style="rounded=0;whiteSpace=wrap;html=1;align=center;" vertex="1" parent="SWsXJmOZ7wIr2kyGPUlN-21">
          <mxGeometry x="50" y="41.25" width="150" height="27.5" as="geometry" />
        </mxCell>
        <mxCell id="SWsXJmOZ7wIr2kyGPUlN-30" value="dim_mkt_tmdm_post_f" style="rounded=0;whiteSpace=wrap;html=1;align=center;" vertex="1" parent="SWsXJmOZ7wIr2kyGPUlN-21">
          <mxGeometry x="210" y="41.25" width="150" height="27.5" as="geometry" />
        </mxCell>
        <mxCell id="SWsXJmOZ7wIr2kyGPUlN-32" value="dim_mkt_tmdm_dept_mapping_f" style="rounded=0;whiteSpace=wrap;html=1;align=center;" vertex="1" parent="SWsXJmOZ7wIr2kyGPUlN-21">
          <mxGeometry x="370" y="41.25" width="200" height="27.5" as="geometry" />
        </mxCell>
        <mxCell id="SWsXJmOZ7wIr2kyGPUlN-34" value="dim_mkt_dim_mgmt_region_m_f" style="rounded=0;whiteSpace=wrap;html=1;align=center;" vertex="1" parent="SWsXJmOZ7wIr2kyGPUlN-21">
          <mxGeometry x="740" y="40" width="240" height="27.5" as="geometry" />
        </mxCell>
        <mxCell id="SWsXJmOZ7wIr2kyGPUlN-36" value="dim_mkt_tmdm_psn_f" style="rounded=0;whiteSpace=wrap;html=1;align=center;" vertex="1" parent="SWsXJmOZ7wIr2kyGPUlN-21">
          <mxGeometry x="580" y="40" width="150" height="28.75" as="geometry" />
        </mxCell>
        <mxCell id="SWsXJmOZ7wIr2kyGPUlN-64" value="dataphin" style="rounded=0;whiteSpace=wrap;html=1;horizontal=0;fontStyle=1;fillColor=#ffff88;strokeColor=#36393d;" vertex="1" parent="1">
          <mxGeometry x="70" y="80" width="20" height="480" as="geometry" />
        </mxCell>
      </root>
    </mxGraphModel>
  </diagram>
</mxfile>
